<mxfile host="app.diagrams.net" modified="2022-01-19T08:46:50.566Z" agent="5.0 (Windows NT 10.0; Win64; x64) AppleWebKit/537.36 (KHTML, like Gecko) Chrome/97.0.4692.71 Safari/537.36 Edg/97.0.1072.55" etag="eIgOX1Kcw01Iza1Vgj0n" version="16.2.7" type="github">
  <diagram id="C5RBs43oDa-KdzZeNtuy" name="Page-1">
    <mxGraphModel dx="1886" dy="943" grid="1" gridSize="10" guides="1" tooltips="1" connect="1" arrows="1" fold="1" page="1" pageScale="1" pageWidth="827" pageHeight="1169" math="1" shadow="0">
      <root>
        <mxCell id="WIyWlLk6GJQsqaUBKTNV-0" />
        <mxCell id="WIyWlLk6GJQsqaUBKTNV-1" parent="WIyWlLk6GJQsqaUBKTNV-0" />
        <mxCell id="nOcpr3f_MZ4lIe2vfiNX-17" value="" style="rounded=0;whiteSpace=wrap;html=1;hachureGap=4;fontFamily=Helvetica;fontSize=14;strokeColor=#82b366;fillColor=#d5e8d4;" vertex="1" parent="WIyWlLk6GJQsqaUBKTNV-1">
          <mxGeometry x="525" y="1300" width="680" height="370" as="geometry" />
        </mxCell>
        <mxCell id="0oYpzeVEECs09RrJKvZ9-6" value="" style="edgeStyle=orthogonalEdgeStyle;rounded=1;sketch=0;orthogonalLoop=1;jettySize=auto;html=1;fontFamily=Comic Sans MS;fontColor=#5C5C5C;strokeColor=#006658;fillColor=#21C0A5;fontSize=14;" parent="WIyWlLk6GJQsqaUBKTNV-1" source="0oYpzeVEECs09RrJKvZ9-0" target="0oYpzeVEECs09RrJKvZ9-5" edge="1">
          <mxGeometry relative="1" as="geometry" />
        </mxCell>
        <mxCell id="0oYpzeVEECs09RrJKvZ9-0" value="类加载检查" style="rounded=1;whiteSpace=wrap;html=1;sketch=0;fontColor=#5C5C5C;strokeColor=#006658;fillColor=#21C0A5;fontFamily=Comic Sans MS;fontSize=14;" parent="WIyWlLk6GJQsqaUBKTNV-1" vertex="1">
          <mxGeometry x="20" y="180" width="120" height="60" as="geometry" />
        </mxCell>
        <mxCell id="0oYpzeVEECs09RrJKvZ9-8" value="" style="edgeStyle=orthogonalEdgeStyle;rounded=1;sketch=0;orthogonalLoop=1;jettySize=auto;html=1;fontFamily=Comic Sans MS;fontColor=#5C5C5C;strokeColor=#006658;fillColor=#21C0A5;fontSize=14;startArrow=none;" parent="WIyWlLk6GJQsqaUBKTNV-1" source="0oYpzeVEECs09RrJKvZ9-9" target="0oYpzeVEECs09RrJKvZ9-7" edge="1">
          <mxGeometry relative="1" as="geometry">
            <Array as="points" />
          </mxGeometry>
        </mxCell>
        <mxCell id="0oYpzeVEECs09RrJKvZ9-23" value="否" style="edgeLabel;html=1;align=center;verticalAlign=middle;resizable=0;points=[];fontSize=14;fontColor=#5C5C5C;" parent="0oYpzeVEECs09RrJKvZ9-8" vertex="1" connectable="0">
          <mxGeometry x="0.5926" y="2" relative="1" as="geometry">
            <mxPoint as="offset" />
          </mxGeometry>
        </mxCell>
        <mxCell id="0oYpzeVEECs09RrJKvZ9-10" value="" style="edgeStyle=orthogonalEdgeStyle;rounded=1;sketch=0;orthogonalLoop=1;jettySize=auto;html=1;fontFamily=Comic Sans MS;fontColor=#5C5C5C;strokeColor=#006658;fillColor=#21C0A5;fontSize=14;" parent="WIyWlLk6GJQsqaUBKTNV-1" source="0oYpzeVEECs09RrJKvZ9-5" target="0oYpzeVEECs09RrJKvZ9-9" edge="1">
          <mxGeometry relative="1" as="geometry" />
        </mxCell>
        <mxCell id="0oYpzeVEECs09RrJKvZ9-14" value="是" style="edgeLabel;html=1;align=center;verticalAlign=middle;resizable=0;points=[];fontColor=#5C5C5C;fontSize=14;" parent="0oYpzeVEECs09RrJKvZ9-10" vertex="1" connectable="0">
          <mxGeometry x="0.2667" y="1" relative="1" as="geometry">
            <mxPoint as="offset" />
          </mxGeometry>
        </mxCell>
        <mxCell id="0oYpzeVEECs09RrJKvZ9-5" value="是否已加载" style="rhombus;whiteSpace=wrap;html=1;fontFamily=Comic Sans MS;fillColor=#21C0A5;strokeColor=#006658;fontColor=#5C5C5C;rounded=1;sketch=0;fontSize=14;" parent="WIyWlLk6GJQsqaUBKTNV-1" vertex="1">
          <mxGeometry x="210" y="170" width="80" height="80" as="geometry" />
        </mxCell>
        <mxCell id="0oYpzeVEECs09RrJKvZ9-24" style="edgeStyle=orthogonalEdgeStyle;curved=0;rounded=1;sketch=0;orthogonalLoop=1;jettySize=auto;html=1;exitX=1;exitY=0.5;exitDx=0;exitDy=0;fontSize=14;fontColor=#5C5C5C;strokeColor=#006658;fillColor=#21C0A5;" parent="WIyWlLk6GJQsqaUBKTNV-1" source="0oYpzeVEECs09RrJKvZ9-7" target="0oYpzeVEECs09RrJKvZ9-9" edge="1">
          <mxGeometry relative="1" as="geometry" />
        </mxCell>
        <mxCell id="0oYpzeVEECs09RrJKvZ9-7" value="加载类" style="whiteSpace=wrap;html=1;fontFamily=Comic Sans MS;fillColor=#21C0A5;strokeColor=#006658;fontColor=#5C5C5C;rounded=1;sketch=0;fontSize=14;" parent="WIyWlLk6GJQsqaUBKTNV-1" vertex="1">
          <mxGeometry x="190" y="20" width="120" height="60" as="geometry" />
        </mxCell>
        <mxCell id="0oYpzeVEECs09RrJKvZ9-16" value="" style="edgeStyle=orthogonalEdgeStyle;curved=0;rounded=1;sketch=0;orthogonalLoop=1;jettySize=auto;html=1;fontColor=#5C5C5C;strokeColor=#006658;fillColor=#21C0A5;fontSize=14;" parent="WIyWlLk6GJQsqaUBKTNV-1" source="0oYpzeVEECs09RrJKvZ9-9" target="0oYpzeVEECs09RrJKvZ9-15" edge="1">
          <mxGeometry relative="1" as="geometry" />
        </mxCell>
        <mxCell id="0oYpzeVEECs09RrJKvZ9-18" value="" style="edgeStyle=orthogonalEdgeStyle;curved=0;rounded=1;sketch=0;orthogonalLoop=1;jettySize=auto;html=1;fontColor=#5C5C5C;strokeColor=#006658;fillColor=#21C0A5;fontSize=14;" parent="WIyWlLk6GJQsqaUBKTNV-1" source="0oYpzeVEECs09RrJKvZ9-15" target="0oYpzeVEECs09RrJKvZ9-17" edge="1">
          <mxGeometry relative="1" as="geometry" />
        </mxCell>
        <mxCell id="0oYpzeVEECs09RrJKvZ9-27" style="edgeStyle=orthogonalEdgeStyle;curved=0;rounded=1;sketch=0;orthogonalLoop=1;jettySize=auto;html=1;exitX=0.5;exitY=1;exitDx=0;exitDy=0;entryX=0.5;entryY=0;entryDx=0;entryDy=0;fontFamily=Helvetica;fontSize=14;fontColor=#5C5C5C;strokeColor=#006658;fillColor=#21C0A5;" parent="WIyWlLk6GJQsqaUBKTNV-1" source="0oYpzeVEECs09RrJKvZ9-15" target="0oYpzeVEECs09RrJKvZ9-26" edge="1">
          <mxGeometry relative="1" as="geometry" />
        </mxCell>
        <mxCell id="0oYpzeVEECs09RrJKvZ9-15" value="初始化" style="whiteSpace=wrap;html=1;fontFamily=Comic Sans MS;fillColor=#21C0A5;strokeColor=#006658;fontColor=#5C5C5C;rounded=1;sketch=0;fontSize=14;" parent="WIyWlLk6GJQsqaUBKTNV-1" vertex="1">
          <mxGeometry x="610" y="180" width="120" height="60" as="geometry" />
        </mxCell>
        <mxCell id="0oYpzeVEECs09RrJKvZ9-20" value="" style="edgeStyle=orthogonalEdgeStyle;curved=0;rounded=1;sketch=0;orthogonalLoop=1;jettySize=auto;html=1;fontColor=#5C5C5C;strokeColor=#006658;fillColor=#21C0A5;fontSize=14;" parent="WIyWlLk6GJQsqaUBKTNV-1" source="0oYpzeVEECs09RrJKvZ9-17" target="0oYpzeVEECs09RrJKvZ9-19" edge="1">
          <mxGeometry relative="1" as="geometry" />
        </mxCell>
        <mxCell id="0oYpzeVEECs09RrJKvZ9-17" value="设置对象头" style="whiteSpace=wrap;html=1;fontFamily=Comic Sans MS;fillColor=#21C0A5;strokeColor=#006658;fontColor=#5C5C5C;rounded=1;sketch=0;fontSize=14;" parent="WIyWlLk6GJQsqaUBKTNV-1" vertex="1">
          <mxGeometry x="810" y="180" width="120" height="60" as="geometry" />
        </mxCell>
        <mxCell id="0oYpzeVEECs09RrJKvZ9-19" value="执行 &amp;lt;init&amp;gt;" style="whiteSpace=wrap;html=1;fontFamily=Comic Sans MS;fillColor=#21C0A5;strokeColor=#006658;fontColor=#5C5C5C;rounded=1;sketch=0;fontSize=14;" parent="WIyWlLk6GJQsqaUBKTNV-1" vertex="1">
          <mxGeometry x="1010" y="180" width="120" height="60" as="geometry" />
        </mxCell>
        <mxCell id="0oYpzeVEECs09RrJKvZ9-9" value="分配内存" style="whiteSpace=wrap;html=1;fontFamily=Comic Sans MS;fillColor=#21C0A5;strokeColor=#006658;fontColor=#5C5C5C;rounded=1;sketch=0;fontSize=14;" parent="WIyWlLk6GJQsqaUBKTNV-1" vertex="1">
          <mxGeometry x="390" y="180" width="120" height="60" as="geometry" />
        </mxCell>
        <mxCell id="0oYpzeVEECs09RrJKvZ9-21" value="" style="edgeStyle=orthogonalEdgeStyle;rounded=1;sketch=0;orthogonalLoop=1;jettySize=auto;html=1;fontFamily=Comic Sans MS;fontColor=#5C5C5C;strokeColor=#006658;fillColor=#21C0A5;fontSize=14;endArrow=none;" parent="WIyWlLk6GJQsqaUBKTNV-1" source="0oYpzeVEECs09RrJKvZ9-5" target="0oYpzeVEECs09RrJKvZ9-9" edge="1">
          <mxGeometry relative="1" as="geometry">
            <mxPoint x="290" y="210" as="sourcePoint" />
            <mxPoint x="250" y="80" as="targetPoint" />
            <Array as="points">
              <mxPoint x="510" y="210" />
              <mxPoint x="510" y="210" />
            </Array>
          </mxGeometry>
        </mxCell>
        <mxCell id="0oYpzeVEECs09RrJKvZ9-26" value="初始化对象内部的静态变量" style="text;html=1;strokeColor=none;fillColor=none;align=center;verticalAlign=middle;whiteSpace=wrap;rounded=0;sketch=0;fontColor=#5C5C5C;fontSize=14;glass=0;" parent="WIyWlLk6GJQsqaUBKTNV-1" vertex="1">
          <mxGeometry x="560" y="290" width="220" height="30" as="geometry" />
        </mxCell>
        <mxCell id="0oYpzeVEECs09RrJKvZ9-29" value="" style="rounded=0;whiteSpace=wrap;html=1;sketch=0;fontColor=#5C5C5C;strokeColor=#006658;fillColor=#21C0A5;" parent="WIyWlLk6GJQsqaUBKTNV-1" vertex="1">
          <mxGeometry x="210" y="380" width="580" height="300" as="geometry" />
        </mxCell>
        <mxCell id="0oYpzeVEECs09RrJKvZ9-30" value="堆内存空间" style="text;html=1;align=center;verticalAlign=middle;resizable=0;points=[];autosize=1;strokeColor=none;fillColor=none;fontColor=#5C5C5C;fontSize=14;" parent="WIyWlLk6GJQsqaUBKTNV-1" vertex="1">
          <mxGeometry x="210" y="390" width="90" height="20" as="geometry" />
        </mxCell>
        <mxCell id="0oYpzeVEECs09RrJKvZ9-31" value="已用内存" style="rounded=1;whiteSpace=wrap;html=1;fontFamily=Helvetica;fontSize=14;fillColor=#fad7ac;strokeColor=#b46504;" parent="WIyWlLk6GJQsqaUBKTNV-1" vertex="1">
          <mxGeometry x="230" y="420" width="120" height="60" as="geometry" />
        </mxCell>
        <mxCell id="0oYpzeVEECs09RrJKvZ9-33" value="已用内存" style="rounded=1;whiteSpace=wrap;html=1;fontFamily=Helvetica;fontSize=14;fillColor=#fad7ac;strokeColor=#b46504;" parent="WIyWlLk6GJQsqaUBKTNV-1" vertex="1">
          <mxGeometry x="650" y="420" width="120" height="60" as="geometry" />
        </mxCell>
        <mxCell id="0oYpzeVEECs09RrJKvZ9-34" value="已用内存" style="rounded=1;whiteSpace=wrap;html=1;fontFamily=Helvetica;fontSize=14;fillColor=#fad7ac;strokeColor=#b46504;" parent="WIyWlLk6GJQsqaUBKTNV-1" vertex="1">
          <mxGeometry x="510" y="420" width="120" height="60" as="geometry" />
        </mxCell>
        <mxCell id="0oYpzeVEECs09RrJKvZ9-35" value="已用内存" style="rounded=1;whiteSpace=wrap;html=1;fontFamily=Helvetica;fontSize=14;fillColor=#fad7ac;strokeColor=#b46504;" parent="WIyWlLk6GJQsqaUBKTNV-1" vertex="1">
          <mxGeometry x="230" y="500" width="120" height="60" as="geometry" />
        </mxCell>
        <mxCell id="0oYpzeVEECs09RrJKvZ9-37" value="空闲内存" style="rounded=1;whiteSpace=wrap;html=1;fontFamily=Helvetica;fontSize=14;fillColor=#b1ddf0;strokeColor=#10739e;" parent="WIyWlLk6GJQsqaUBKTNV-1" vertex="1">
          <mxGeometry x="370" y="500" width="120" height="60" as="geometry" />
        </mxCell>
        <mxCell id="0oYpzeVEECs09RrJKvZ9-38" value="" style="shape=flexArrow;endArrow=classic;html=1;rounded=1;sketch=0;fontFamily=Helvetica;fontSize=14;fontColor=#5C5C5C;fillColor=#bac8d3;curved=0;width=11;endSize=6.74;strokeColor=#23445d;" parent="WIyWlLk6GJQsqaUBKTNV-1" edge="1">
          <mxGeometry width="50" height="50" relative="1" as="geometry">
            <mxPoint x="360" y="620" as="sourcePoint" />
            <mxPoint x="360" y="550" as="targetPoint" />
          </mxGeometry>
        </mxCell>
        <mxCell id="0oYpzeVEECs09RrJKvZ9-40" value="空闲内存" style="rounded=1;whiteSpace=wrap;html=1;fontFamily=Helvetica;fontSize=14;fillColor=#b1ddf0;strokeColor=#10739e;" parent="WIyWlLk6GJQsqaUBKTNV-1" vertex="1">
          <mxGeometry x="650" y="500" width="120" height="60" as="geometry" />
        </mxCell>
        <mxCell id="0oYpzeVEECs09RrJKvZ9-41" value="空闲内存" style="rounded=1;whiteSpace=wrap;html=1;fontFamily=Helvetica;fontSize=14;fillColor=#b1ddf0;strokeColor=#10739e;" parent="WIyWlLk6GJQsqaUBKTNV-1" vertex="1">
          <mxGeometry x="510" y="500" width="120" height="60" as="geometry" />
        </mxCell>
        <mxCell id="0oYpzeVEECs09RrJKvZ9-42" value="空闲内存" style="rounded=1;whiteSpace=wrap;html=1;fontFamily=Helvetica;fontSize=14;fillColor=#b1ddf0;strokeColor=#10739e;" parent="WIyWlLk6GJQsqaUBKTNV-1" vertex="1">
          <mxGeometry x="230" y="590" width="120" height="60" as="geometry" />
        </mxCell>
        <mxCell id="0oYpzeVEECs09RrJKvZ9-39" value="内存指针" style="text;html=1;align=center;verticalAlign=middle;resizable=0;points=[];autosize=1;strokeColor=none;fillColor=none;fontSize=14;fontFamily=Helvetica;fontColor=#5C5C5C;" parent="WIyWlLk6GJQsqaUBKTNV-1" vertex="1">
          <mxGeometry x="370" y="585" width="70" height="20" as="geometry" />
        </mxCell>
        <mxCell id="0oYpzeVEECs09RrJKvZ9-43" value="" style="rounded=0;whiteSpace=wrap;html=1;sketch=0;fontColor=#5C5C5C;strokeColor=#006658;fillColor=#21C0A5;" parent="WIyWlLk6GJQsqaUBKTNV-1" vertex="1">
          <mxGeometry x="210" y="710" width="580" height="200" as="geometry" />
        </mxCell>
        <mxCell id="0oYpzeVEECs09RrJKvZ9-44" value="堆内存空间" style="text;html=1;align=center;verticalAlign=middle;resizable=0;points=[];autosize=1;strokeColor=none;fillColor=none;fontColor=#5C5C5C;fontSize=14;" parent="WIyWlLk6GJQsqaUBKTNV-1" vertex="1">
          <mxGeometry x="210" y="720" width="90" height="20" as="geometry" />
        </mxCell>
        <mxCell id="0oYpzeVEECs09RrJKvZ9-45" value="已用内存" style="rounded=1;whiteSpace=wrap;html=1;fontFamily=Helvetica;fontSize=14;fillColor=#fad7ac;strokeColor=#b46504;" parent="WIyWlLk6GJQsqaUBKTNV-1" vertex="1">
          <mxGeometry x="230" y="750" width="120" height="60" as="geometry" />
        </mxCell>
        <mxCell id="0oYpzeVEECs09RrJKvZ9-46" value="已用内存" style="rounded=1;whiteSpace=wrap;html=1;fontFamily=Helvetica;fontSize=14;fillColor=#fad7ac;strokeColor=#b46504;" parent="WIyWlLk6GJQsqaUBKTNV-1" vertex="1">
          <mxGeometry x="510" y="750" width="120" height="60" as="geometry" />
        </mxCell>
        <mxCell id="0oYpzeVEECs09RrJKvZ9-47" value="已用内存" style="rounded=1;whiteSpace=wrap;html=1;fontFamily=Helvetica;fontSize=14;fillColor=#fad7ac;strokeColor=#b46504;" parent="WIyWlLk6GJQsqaUBKTNV-1" vertex="1">
          <mxGeometry x="650" y="830" width="120" height="60" as="geometry" />
        </mxCell>
        <mxCell id="0oYpzeVEECs09RrJKvZ9-48" value="已用内存" style="rounded=1;whiteSpace=wrap;html=1;fontFamily=Helvetica;fontSize=14;fillColor=#fad7ac;strokeColor=#b46504;" parent="WIyWlLk6GJQsqaUBKTNV-1" vertex="1">
          <mxGeometry x="370" y="830" width="120" height="60" as="geometry" />
        </mxCell>
        <mxCell id="0oYpzeVEECs09RrJKvZ9-50" value="空闲内存" style="rounded=1;whiteSpace=wrap;html=1;fontFamily=Helvetica;fontSize=14;fillColor=#b1ddf0;strokeColor=#10739e;" parent="WIyWlLk6GJQsqaUBKTNV-1" vertex="1">
          <mxGeometry x="370" y="750" width="120" height="60" as="geometry" />
        </mxCell>
        <mxCell id="0oYpzeVEECs09RrJKvZ9-52" value="空闲内存" style="rounded=1;whiteSpace=wrap;html=1;fontFamily=Helvetica;fontSize=14;fillColor=#b1ddf0;strokeColor=#10739e;" parent="WIyWlLk6GJQsqaUBKTNV-1" vertex="1">
          <mxGeometry x="650" y="750" width="120" height="60" as="geometry" />
        </mxCell>
        <mxCell id="0oYpzeVEECs09RrJKvZ9-53" value="空闲内存" style="rounded=1;whiteSpace=wrap;html=1;fontFamily=Helvetica;fontSize=14;fillColor=#b1ddf0;strokeColor=#10739e;" parent="WIyWlLk6GJQsqaUBKTNV-1" vertex="1">
          <mxGeometry x="510" y="830" width="120" height="60" as="geometry" />
        </mxCell>
        <mxCell id="0oYpzeVEECs09RrJKvZ9-54" value="空闲内存" style="rounded=1;whiteSpace=wrap;html=1;fontFamily=Helvetica;fontSize=14;fillColor=#b1ddf0;strokeColor=#10739e;" parent="WIyWlLk6GJQsqaUBKTNV-1" vertex="1">
          <mxGeometry x="230" y="830" width="120" height="60" as="geometry" />
        </mxCell>
        <mxCell id="0oYpzeVEECs09RrJKvZ9-57" value="" style="rounded=0;whiteSpace=wrap;html=1;sketch=0;fontColor=#5C5C5C;strokeColor=#006658;fillColor=#21C0A5;" parent="WIyWlLk6GJQsqaUBKTNV-1" vertex="1">
          <mxGeometry x="840" y="380" width="560" height="300" as="geometry" />
        </mxCell>
        <mxCell id="0oYpzeVEECs09RrJKvZ9-58" value="已用内存" style="rounded=1;whiteSpace=wrap;html=1;fontFamily=Helvetica;fontSize=14;fillColor=#fad7ac;strokeColor=#b46504;" parent="WIyWlLk6GJQsqaUBKTNV-1" vertex="1">
          <mxGeometry x="370" y="420" width="120" height="60" as="geometry" />
        </mxCell>
        <mxCell id="0oYpzeVEECs09RrJKvZ9-59" value="堆内存空间" style="text;html=1;align=center;verticalAlign=middle;resizable=0;points=[];autosize=1;strokeColor=none;fillColor=none;fontColor=#5C5C5C;fontSize=14;" parent="WIyWlLk6GJQsqaUBKTNV-1" vertex="1">
          <mxGeometry x="840" y="390" width="90" height="20" as="geometry" />
        </mxCell>
        <mxCell id="0oYpzeVEECs09RrJKvZ9-61" value="线程1 内存块" style="rounded=1;whiteSpace=wrap;html=1;fontFamily=Helvetica;fontSize=14;fillColor=#fad7ac;strokeColor=#b46504;" parent="WIyWlLk6GJQsqaUBKTNV-1" vertex="1">
          <mxGeometry x="850" y="420" width="170" height="240" as="geometry" />
        </mxCell>
        <mxCell id="0oYpzeVEECs09RrJKvZ9-62" value="线程2 内存块" style="rounded=1;whiteSpace=wrap;html=1;fontFamily=Helvetica;fontSize=14;fillColor=#fad7ac;strokeColor=#b46504;" parent="WIyWlLk6GJQsqaUBKTNV-1" vertex="1">
          <mxGeometry x="1035" y="420" width="170" height="240" as="geometry" />
        </mxCell>
        <mxCell id="0oYpzeVEECs09RrJKvZ9-64" value="空闲内存" style="rounded=1;whiteSpace=wrap;html=1;fontFamily=Helvetica;fontSize=14;fillColor=#b1ddf0;strokeColor=#10739e;" parent="WIyWlLk6GJQsqaUBKTNV-1" vertex="1">
          <mxGeometry x="1230" y="420" width="120" height="60" as="geometry" />
        </mxCell>
        <mxCell id="0oYpzeVEECs09RrJKvZ9-65" value="空闲内存" style="rounded=1;whiteSpace=wrap;html=1;fontFamily=Helvetica;fontSize=14;fillColor=#b1ddf0;strokeColor=#10739e;" parent="WIyWlLk6GJQsqaUBKTNV-1" vertex="1">
          <mxGeometry x="1230" y="500" width="120" height="60" as="geometry" />
        </mxCell>
        <mxCell id="0oYpzeVEECs09RrJKvZ9-68" value="空闲内存" style="rounded=1;whiteSpace=wrap;html=1;fontFamily=Helvetica;fontSize=14;fillColor=#b1ddf0;strokeColor=#10739e;" parent="WIyWlLk6GJQsqaUBKTNV-1" vertex="1">
          <mxGeometry x="1230" y="590" width="120" height="60" as="geometry" />
        </mxCell>
        <mxCell id="nOcpr3f_MZ4lIe2vfiNX-1" value="" style="edgeStyle=none;curved=1;rounded=0;orthogonalLoop=1;jettySize=auto;html=1;endArrow=open;startSize=14;endSize=14;sourcePerimeterSpacing=8;targetPerimeterSpacing=8;" edge="1" parent="WIyWlLk6GJQsqaUBKTNV-1" source="0oYpzeVEECs09RrJKvZ9-70" target="nOcpr3f_MZ4lIe2vfiNX-0">
          <mxGeometry relative="1" as="geometry" />
        </mxCell>
        <mxCell id="nOcpr3f_MZ4lIe2vfiNX-4" value="new Object()" style="edgeLabel;html=1;align=center;verticalAlign=middle;resizable=0;points=[];fontSize=14;fontFamily=Helvetica;fontColor=default;" vertex="1" connectable="0" parent="nOcpr3f_MZ4lIe2vfiNX-1">
          <mxGeometry x="-0.2885" y="1" relative="1" as="geometry">
            <mxPoint x="14" y="1" as="offset" />
          </mxGeometry>
        </mxCell>
        <mxCell id="0oYpzeVEECs09RrJKvZ9-70" value="Start" style="ellipse;whiteSpace=wrap;html=1;aspect=fixed;rounded=0;sketch=0;fontColor=#5C5C5C;strokeColor=#006658;fillColor=#21C0A5;fontSize=14;" parent="WIyWlLk6GJQsqaUBKTNV-1" vertex="1">
          <mxGeometry x="180" y="1120" width="80" height="80" as="geometry" />
        </mxCell>
        <mxCell id="nOcpr3f_MZ4lIe2vfiNX-3" value="" style="edgeStyle=none;curved=1;rounded=0;orthogonalLoop=1;jettySize=auto;html=1;fontFamily=Helvetica;fontSize=14;fontColor=default;endArrow=open;startSize=14;endSize=14;sourcePerimeterSpacing=8;targetPerimeterSpacing=8;" edge="1" parent="WIyWlLk6GJQsqaUBKTNV-1" source="nOcpr3f_MZ4lIe2vfiNX-0" target="nOcpr3f_MZ4lIe2vfiNX-2">
          <mxGeometry relative="1" as="geometry" />
        </mxCell>
        <mxCell id="nOcpr3f_MZ4lIe2vfiNX-8" value="Y" style="edgeLabel;html=1;align=center;verticalAlign=middle;resizable=0;points=[];fontSize=14;fontFamily=Helvetica;fontColor=default;" vertex="1" connectable="0" parent="nOcpr3f_MZ4lIe2vfiNX-3">
          <mxGeometry x="0.2692" y="-2" relative="1" as="geometry">
            <mxPoint as="offset" />
          </mxGeometry>
        </mxCell>
        <mxCell id="nOcpr3f_MZ4lIe2vfiNX-6" value="" style="edgeStyle=none;curved=1;rounded=0;orthogonalLoop=1;jettySize=auto;html=1;fontFamily=Helvetica;fontSize=14;fontColor=default;endArrow=open;startSize=14;endSize=14;sourcePerimeterSpacing=8;targetPerimeterSpacing=8;" edge="1" parent="WIyWlLk6GJQsqaUBKTNV-1" source="nOcpr3f_MZ4lIe2vfiNX-0" target="nOcpr3f_MZ4lIe2vfiNX-5">
          <mxGeometry relative="1" as="geometry" />
        </mxCell>
        <mxCell id="nOcpr3f_MZ4lIe2vfiNX-7" value="N" style="edgeLabel;html=1;align=center;verticalAlign=middle;resizable=0;points=[];fontSize=14;fontFamily=Helvetica;fontColor=default;" vertex="1" connectable="0" parent="nOcpr3f_MZ4lIe2vfiNX-6">
          <mxGeometry x="-0.3077" y="-1" relative="1" as="geometry">
            <mxPoint as="offset" />
          </mxGeometry>
        </mxCell>
        <mxCell id="nOcpr3f_MZ4lIe2vfiNX-0" value="栈内分配?" style="rhombus;whiteSpace=wrap;html=1;hachureGap=4;fontSize=14;fillColor=#ffcccc;strokeColor=#36393d;" vertex="1" parent="WIyWlLk6GJQsqaUBKTNV-1">
          <mxGeometry x="410" y="1120" width="80" height="80" as="geometry" />
        </mxCell>
        <mxCell id="nOcpr3f_MZ4lIe2vfiNX-38" style="edgeStyle=orthogonalEdgeStyle;rounded=0;orthogonalLoop=1;jettySize=auto;html=1;exitX=1;exitY=0.5;exitDx=0;exitDy=0;entryX=0.5;entryY=0;entryDx=0;entryDy=0;fontFamily=Helvetica;fontSize=14;fontColor=default;endArrow=open;startSize=14;endSize=14;sourcePerimeterSpacing=8;targetPerimeterSpacing=8;strokeColor=#FF8000;" edge="1" parent="WIyWlLk6GJQsqaUBKTNV-1" source="nOcpr3f_MZ4lIe2vfiNX-2" target="nOcpr3f_MZ4lIe2vfiNX-37">
          <mxGeometry relative="1" as="geometry" />
        </mxCell>
        <mxCell id="nOcpr3f_MZ4lIe2vfiNX-39" value="栈 POP" style="edgeLabel;html=1;align=center;verticalAlign=middle;resizable=0;points=[];fontSize=14;fontFamily=Helvetica;fontColor=default;" vertex="1" connectable="0" parent="nOcpr3f_MZ4lIe2vfiNX-38">
          <mxGeometry x="-0.2957" relative="1" as="geometry">
            <mxPoint as="offset" />
          </mxGeometry>
        </mxCell>
        <mxCell id="nOcpr3f_MZ4lIe2vfiNX-2" value="栈" style="whiteSpace=wrap;html=1;hachureGap=4;fontFamily=Helvetica;fontSize=14;strokeColor=#36393d;fillColor=#cce5ff;" vertex="1" parent="WIyWlLk6GJQsqaUBKTNV-1">
          <mxGeometry x="610" y="1130" width="120" height="60" as="geometry" />
        </mxCell>
        <mxCell id="nOcpr3f_MZ4lIe2vfiNX-10" value="" style="edgeStyle=none;curved=1;rounded=0;orthogonalLoop=1;jettySize=auto;html=1;fontFamily=Helvetica;fontSize=14;fontColor=default;endArrow=open;startSize=14;endSize=14;sourcePerimeterSpacing=8;targetPerimeterSpacing=8;" edge="1" parent="WIyWlLk6GJQsqaUBKTNV-1" source="nOcpr3f_MZ4lIe2vfiNX-5" target="nOcpr3f_MZ4lIe2vfiNX-9">
          <mxGeometry relative="1" as="geometry" />
        </mxCell>
        <mxCell id="nOcpr3f_MZ4lIe2vfiNX-11" value="N" style="edgeLabel;html=1;align=center;verticalAlign=middle;resizable=0;points=[];fontSize=14;fontFamily=Helvetica;fontColor=default;" vertex="1" connectable="0" parent="nOcpr3f_MZ4lIe2vfiNX-10">
          <mxGeometry x="-0.3846" relative="1" as="geometry">
            <mxPoint as="offset" />
          </mxGeometry>
        </mxCell>
        <mxCell id="nOcpr3f_MZ4lIe2vfiNX-13" value="" style="edgeStyle=none;curved=1;rounded=0;orthogonalLoop=1;jettySize=auto;html=1;fontFamily=Helvetica;fontSize=14;fontColor=default;endArrow=open;startSize=14;endSize=14;sourcePerimeterSpacing=8;targetPerimeterSpacing=8;" edge="1" parent="WIyWlLk6GJQsqaUBKTNV-1" source="nOcpr3f_MZ4lIe2vfiNX-5" target="nOcpr3f_MZ4lIe2vfiNX-12">
          <mxGeometry relative="1" as="geometry" />
        </mxCell>
        <mxCell id="nOcpr3f_MZ4lIe2vfiNX-50" value="Y" style="edgeLabel;html=1;align=center;verticalAlign=middle;resizable=0;points=[];fontSize=14;fontFamily=Helvetica;fontColor=default;" vertex="1" connectable="0" parent="nOcpr3f_MZ4lIe2vfiNX-13">
          <mxGeometry x="-0.0727" y="-1" relative="1" as="geometry">
            <mxPoint as="offset" />
          </mxGeometry>
        </mxCell>
        <mxCell id="nOcpr3f_MZ4lIe2vfiNX-5" value="是否大对象" style="rhombus;whiteSpace=wrap;html=1;hachureGap=4;fontFamily=Helvetica;fontSize=14;strokeColor=#36393d;fillColor=#ffcccc;" vertex="1" parent="WIyWlLk6GJQsqaUBKTNV-1">
          <mxGeometry x="410" y="1320" width="80" height="80" as="geometry" />
        </mxCell>
        <mxCell id="nOcpr3f_MZ4lIe2vfiNX-15" value="" style="edgeStyle=none;curved=1;rounded=0;orthogonalLoop=1;jettySize=auto;html=1;fontFamily=Helvetica;fontSize=14;fontColor=default;endArrow=open;startSize=14;endSize=14;sourcePerimeterSpacing=8;targetPerimeterSpacing=8;" edge="1" parent="WIyWlLk6GJQsqaUBKTNV-1" source="nOcpr3f_MZ4lIe2vfiNX-9" target="nOcpr3f_MZ4lIe2vfiNX-14">
          <mxGeometry relative="1" as="geometry" />
        </mxCell>
        <mxCell id="nOcpr3f_MZ4lIe2vfiNX-16" value="Y" style="edgeLabel;html=1;align=center;verticalAlign=middle;resizable=0;points=[];fontSize=14;fontFamily=Helvetica;fontColor=default;" vertex="1" connectable="0" parent="nOcpr3f_MZ4lIe2vfiNX-15">
          <mxGeometry x="0.2308" y="-2" relative="1" as="geometry">
            <mxPoint as="offset" />
          </mxGeometry>
        </mxCell>
        <mxCell id="nOcpr3f_MZ4lIe2vfiNX-34" style="edgeStyle=orthogonalEdgeStyle;rounded=0;orthogonalLoop=1;jettySize=auto;html=1;exitX=0.5;exitY=1;exitDx=0;exitDy=0;entryX=0.5;entryY=1;entryDx=0;entryDy=0;fontFamily=Helvetica;fontSize=14;fontColor=default;endArrow=open;startSize=14;endSize=14;sourcePerimeterSpacing=8;targetPerimeterSpacing=8;" edge="1" parent="WIyWlLk6GJQsqaUBKTNV-1" source="nOcpr3f_MZ4lIe2vfiNX-9" target="nOcpr3f_MZ4lIe2vfiNX-14">
          <mxGeometry relative="1" as="geometry" />
        </mxCell>
        <mxCell id="nOcpr3f_MZ4lIe2vfiNX-35" value="N" style="edgeLabel;html=1;align=center;verticalAlign=middle;resizable=0;points=[];fontSize=14;fontFamily=Helvetica;fontColor=default;" vertex="1" connectable="0" parent="nOcpr3f_MZ4lIe2vfiNX-34">
          <mxGeometry x="-0.2083" y="-1" relative="1" as="geometry">
            <mxPoint as="offset" />
          </mxGeometry>
        </mxCell>
        <mxCell id="nOcpr3f_MZ4lIe2vfiNX-9" value="TLAB?" style="rhombus;whiteSpace=wrap;html=1;hachureGap=4;fontFamily=Helvetica;fontSize=14;strokeColor=#36393d;fillColor=#ffcccc;" vertex="1" parent="WIyWlLk6GJQsqaUBKTNV-1">
          <mxGeometry x="410" y="1520" width="80" height="80" as="geometry" />
        </mxCell>
        <mxCell id="nOcpr3f_MZ4lIe2vfiNX-41" style="edgeStyle=orthogonalEdgeStyle;rounded=0;orthogonalLoop=1;jettySize=auto;html=1;exitX=0.5;exitY=0;exitDx=0;exitDy=0;fontFamily=Helvetica;fontSize=14;fontColor=default;endArrow=open;sourcePerimeterSpacing=8;targetPerimeterSpacing=8;entryX=0.5;entryY=0;entryDx=0;entryDy=0;strokeColor=#FF8000;" edge="1" parent="WIyWlLk6GJQsqaUBKTNV-1" source="nOcpr3f_MZ4lIe2vfiNX-12" target="nOcpr3f_MZ4lIe2vfiNX-37">
          <mxGeometry relative="1" as="geometry">
            <mxPoint x="1290" y="1482" as="targetPoint" />
            <Array as="points">
              <mxPoint x="855" y="1220" />
              <mxPoint x="1290" y="1220" />
            </Array>
          </mxGeometry>
        </mxCell>
        <mxCell id="nOcpr3f_MZ4lIe2vfiNX-42" value="Full GC" style="edgeLabel;html=1;align=center;verticalAlign=middle;resizable=0;points=[];fontSize=14;fontFamily=Helvetica;fontColor=default;" vertex="1" connectable="0" parent="nOcpr3f_MZ4lIe2vfiNX-41">
          <mxGeometry x="-0.259" y="-1" relative="1" as="geometry">
            <mxPoint as="offset" />
          </mxGeometry>
        </mxCell>
        <mxCell id="nOcpr3f_MZ4lIe2vfiNX-12" value="老年代内存区(OLD)" style="whiteSpace=wrap;html=1;hachureGap=4;fontFamily=Helvetica;fontSize=14;strokeColor=#36393d;fillColor=#cce5ff;" vertex="1" parent="WIyWlLk6GJQsqaUBKTNV-1">
          <mxGeometry x="795" y="1330" width="120" height="60" as="geometry" />
        </mxCell>
        <mxCell id="nOcpr3f_MZ4lIe2vfiNX-21" value="" style="edgeStyle=none;curved=1;rounded=0;orthogonalLoop=1;jettySize=auto;html=1;fontFamily=Helvetica;fontSize=14;fontColor=default;endArrow=open;startSize=14;endSize=14;sourcePerimeterSpacing=8;targetPerimeterSpacing=8;" edge="1" parent="WIyWlLk6GJQsqaUBKTNV-1" source="nOcpr3f_MZ4lIe2vfiNX-14" target="nOcpr3f_MZ4lIe2vfiNX-20">
          <mxGeometry relative="1" as="geometry" />
        </mxCell>
        <mxCell id="nOcpr3f_MZ4lIe2vfiNX-14" value="EDEN" style="whiteSpace=wrap;html=1;hachureGap=4;fontFamily=Helvetica;fontSize=14;strokeColor=#36393d;fillColor=#cce5ff;" vertex="1" parent="WIyWlLk6GJQsqaUBKTNV-1">
          <mxGeometry x="580" y="1530" width="60" height="60" as="geometry" />
        </mxCell>
        <mxCell id="nOcpr3f_MZ4lIe2vfiNX-18" value="堆内存" style="text;html=1;align=center;verticalAlign=middle;resizable=0;points=[];autosize=1;strokeColor=none;fillColor=none;hachureGap=4;fontFamily=Helvetica;fontSize=14;fontColor=default;" vertex="1" parent="WIyWlLk6GJQsqaUBKTNV-1">
          <mxGeometry x="535" y="1310" width="60" height="20" as="geometry" />
        </mxCell>
        <mxCell id="nOcpr3f_MZ4lIe2vfiNX-23" value="" style="edgeStyle=none;curved=1;rounded=0;orthogonalLoop=1;jettySize=auto;html=1;fontFamily=Helvetica;fontSize=14;fontColor=default;endArrow=open;startSize=14;endSize=14;sourcePerimeterSpacing=8;targetPerimeterSpacing=8;" edge="1" parent="WIyWlLk6GJQsqaUBKTNV-1" source="nOcpr3f_MZ4lIe2vfiNX-20" target="nOcpr3f_MZ4lIe2vfiNX-22">
          <mxGeometry relative="1" as="geometry" />
        </mxCell>
        <mxCell id="nOcpr3f_MZ4lIe2vfiNX-24" value="N" style="edgeLabel;html=1;align=center;verticalAlign=middle;resizable=0;points=[];fontSize=14;fontFamily=Helvetica;fontColor=default;" vertex="1" connectable="0" parent="nOcpr3f_MZ4lIe2vfiNX-23">
          <mxGeometry x="-0.25" relative="1" as="geometry">
            <mxPoint as="offset" />
          </mxGeometry>
        </mxCell>
        <mxCell id="nOcpr3f_MZ4lIe2vfiNX-43" style="edgeStyle=orthogonalEdgeStyle;rounded=0;orthogonalLoop=1;jettySize=auto;html=1;exitX=0.5;exitY=1;exitDx=0;exitDy=0;entryX=0.5;entryY=1;entryDx=0;entryDy=0;fontFamily=Helvetica;fontSize=14;fontColor=default;endArrow=open;startSize=14;endSize=14;sourcePerimeterSpacing=8;targetPerimeterSpacing=8;strokeColor=#FF8000;" edge="1" parent="WIyWlLk6GJQsqaUBKTNV-1" source="nOcpr3f_MZ4lIe2vfiNX-20" target="nOcpr3f_MZ4lIe2vfiNX-37">
          <mxGeometry relative="1" as="geometry">
            <Array as="points">
              <mxPoint x="725" y="1650" />
              <mxPoint x="1290" y="1650" />
            </Array>
          </mxGeometry>
        </mxCell>
        <mxCell id="nOcpr3f_MZ4lIe2vfiNX-44" value="Y" style="edgeLabel;html=1;align=center;verticalAlign=middle;resizable=0;points=[];fontSize=14;fontFamily=Helvetica;fontColor=default;" vertex="1" connectable="0" parent="nOcpr3f_MZ4lIe2vfiNX-43">
          <mxGeometry x="0.0466" y="-1" relative="1" as="geometry">
            <mxPoint as="offset" />
          </mxGeometry>
        </mxCell>
        <mxCell id="nOcpr3f_MZ4lIe2vfiNX-20" value="Minor GC?" style="rhombus;whiteSpace=wrap;html=1;hachureGap=4;fontFamily=Helvetica;fontSize=14;strokeColor=#36393d;fillColor=#ffcccc;" vertex="1" parent="WIyWlLk6GJQsqaUBKTNV-1">
          <mxGeometry x="685" y="1520" width="80" height="80" as="geometry" />
        </mxCell>
        <mxCell id="nOcpr3f_MZ4lIe2vfiNX-26" value="" style="edgeStyle=none;curved=1;rounded=0;orthogonalLoop=1;jettySize=auto;html=1;fontFamily=Helvetica;fontSize=14;fontColor=default;endArrow=open;startSize=14;endSize=14;sourcePerimeterSpacing=8;targetPerimeterSpacing=8;" edge="1" parent="WIyWlLk6GJQsqaUBKTNV-1" source="nOcpr3f_MZ4lIe2vfiNX-22" target="nOcpr3f_MZ4lIe2vfiNX-25">
          <mxGeometry relative="1" as="geometry" />
        </mxCell>
        <mxCell id="nOcpr3f_MZ4lIe2vfiNX-22" value="S1" style="whiteSpace=wrap;html=1;hachureGap=4;fontFamily=Helvetica;fontSize=14;strokeColor=#36393d;fillColor=#cce5ff;" vertex="1" parent="WIyWlLk6GJQsqaUBKTNV-1">
          <mxGeometry x="830" y="1530" width="70" height="60" as="geometry" />
        </mxCell>
        <mxCell id="nOcpr3f_MZ4lIe2vfiNX-27" style="edgeStyle=orthogonalEdgeStyle;rounded=0;orthogonalLoop=1;jettySize=auto;html=1;exitX=0.5;exitY=0;exitDx=0;exitDy=0;entryX=1;entryY=0.5;entryDx=0;entryDy=0;fontFamily=Helvetica;fontSize=14;fontColor=default;endArrow=open;startSize=14;endSize=14;sourcePerimeterSpacing=8;targetPerimeterSpacing=8;" edge="1" parent="WIyWlLk6GJQsqaUBKTNV-1" source="nOcpr3f_MZ4lIe2vfiNX-25" target="nOcpr3f_MZ4lIe2vfiNX-12">
          <mxGeometry relative="1" as="geometry" />
        </mxCell>
        <mxCell id="nOcpr3f_MZ4lIe2vfiNX-31" value="Y" style="edgeLabel;html=1;align=center;verticalAlign=middle;resizable=0;points=[];fontSize=14;fontFamily=Helvetica;fontColor=default;" vertex="1" connectable="0" parent="nOcpr3f_MZ4lIe2vfiNX-27">
          <mxGeometry x="-0.2627" y="2" relative="1" as="geometry">
            <mxPoint as="offset" />
          </mxGeometry>
        </mxCell>
        <mxCell id="nOcpr3f_MZ4lIe2vfiNX-33" value="" style="edgeStyle=orthogonalEdgeStyle;rounded=0;orthogonalLoop=1;jettySize=auto;html=1;fontFamily=Helvetica;fontSize=14;fontColor=default;endArrow=open;startSize=14;endSize=14;targetPerimeterSpacing=8;startArrow=none;" edge="1" parent="WIyWlLk6GJQsqaUBKTNV-1" source="nOcpr3f_MZ4lIe2vfiNX-51" target="nOcpr3f_MZ4lIe2vfiNX-32">
          <mxGeometry relative="1" as="geometry" />
        </mxCell>
        <mxCell id="nOcpr3f_MZ4lIe2vfiNX-25" value="动态年龄判断" style="rhombus;whiteSpace=wrap;html=1;hachureGap=4;fontFamily=Helvetica;fontSize=14;strokeColor=#36393d;fillColor=#ffcccc;" vertex="1" parent="WIyWlLk6GJQsqaUBKTNV-1">
          <mxGeometry x="950" y="1520" width="110" height="80" as="geometry" />
        </mxCell>
        <mxCell id="nOcpr3f_MZ4lIe2vfiNX-36" style="edgeStyle=orthogonalEdgeStyle;rounded=0;orthogonalLoop=1;jettySize=auto;html=1;exitX=0.5;exitY=1;exitDx=0;exitDy=0;entryX=0.5;entryY=1;entryDx=0;entryDy=0;fontFamily=Helvetica;fontSize=14;fontColor=default;endArrow=open;startSize=14;endSize=14;sourcePerimeterSpacing=8;targetPerimeterSpacing=8;" edge="1" parent="WIyWlLk6GJQsqaUBKTNV-1" source="nOcpr3f_MZ4lIe2vfiNX-32" target="nOcpr3f_MZ4lIe2vfiNX-20">
          <mxGeometry relative="1" as="geometry" />
        </mxCell>
        <mxCell id="nOcpr3f_MZ4lIe2vfiNX-32" value="S2" style="whiteSpace=wrap;html=1;hachureGap=4;fontFamily=Helvetica;fontSize=14;strokeColor=#36393d;fillColor=#cce5ff;" vertex="1" parent="WIyWlLk6GJQsqaUBKTNV-1">
          <mxGeometry x="1130" y="1530" width="60" height="60" as="geometry" />
        </mxCell>
        <mxCell id="nOcpr3f_MZ4lIe2vfiNX-37" value="End 对象内存销毁" style="ellipse;whiteSpace=wrap;html=1;aspect=fixed;hachureGap=4;fontFamily=Helvetica;fontSize=14;strokeColor=#36393d;fillColor=#ffcc99;" vertex="1" parent="WIyWlLk6GJQsqaUBKTNV-1">
          <mxGeometry x="1250" y="1520" width="80" height="80" as="geometry" />
        </mxCell>
        <mxCell id="nOcpr3f_MZ4lIe2vfiNX-45" value="" style="shape=curlyBracket;whiteSpace=wrap;html=1;rounded=1;hachureGap=4;fontFamily=Helvetica;fontSize=14;fontColor=default;strokeColor=default;fillColor=default;rotation=90;dashed=1;" vertex="1" parent="WIyWlLk6GJQsqaUBKTNV-1">
          <mxGeometry x="860" y="1250" width="20" height="530" as="geometry" />
        </mxCell>
        <mxCell id="nOcpr3f_MZ4lIe2vfiNX-49" value="年轻代内存" style="text;html=1;align=center;verticalAlign=middle;resizable=0;points=[];autosize=1;strokeColor=none;fillColor=none;dashed=1;hachureGap=4;fontFamily=Helvetica;fontSize=14;fontColor=default;" vertex="1" parent="WIyWlLk6GJQsqaUBKTNV-1">
          <mxGeometry x="825" y="1480" width="90" height="20" as="geometry" />
        </mxCell>
        <mxCell id="nOcpr3f_MZ4lIe2vfiNX-51" value="N" style="text;html=1;align=center;verticalAlign=middle;resizable=0;points=[];autosize=1;strokeColor=none;fillColor=none;dashed=1;hachureGap=4;fontFamily=Helvetica;fontSize=14;fontColor=default;" vertex="1" parent="WIyWlLk6GJQsqaUBKTNV-1">
          <mxGeometry x="1080" y="1550" width="30" height="20" as="geometry" />
        </mxCell>
        <mxCell id="nOcpr3f_MZ4lIe2vfiNX-52" value="" style="edgeStyle=orthogonalEdgeStyle;rounded=0;orthogonalLoop=1;jettySize=auto;html=1;fontFamily=Helvetica;fontSize=14;fontColor=default;endArrow=none;startSize=14;endSize=14;sourcePerimeterSpacing=8;" edge="1" parent="WIyWlLk6GJQsqaUBKTNV-1" source="nOcpr3f_MZ4lIe2vfiNX-25" target="nOcpr3f_MZ4lIe2vfiNX-51">
          <mxGeometry relative="1" as="geometry">
            <mxPoint x="1073" y="1560" as="sourcePoint" />
            <mxPoint x="1122" y="1560" as="targetPoint" />
          </mxGeometry>
        </mxCell>
        <mxCell id="nOcpr3f_MZ4lIe2vfiNX-57" value="" style="edgeStyle=orthogonalEdgeStyle;rounded=0;orthogonalLoop=1;jettySize=auto;html=1;fontFamily=Helvetica;fontSize=14;fontColor=default;endArrow=open;sourcePerimeterSpacing=8;targetPerimeterSpacing=8;strokeColor=#000000;" edge="1" parent="WIyWlLk6GJQsqaUBKTNV-1" source="nOcpr3f_MZ4lIe2vfiNX-55" target="nOcpr3f_MZ4lIe2vfiNX-56">
          <mxGeometry relative="1" as="geometry" />
        </mxCell>
        <mxCell id="nOcpr3f_MZ4lIe2vfiNX-55" value="Minor GC 前" style="rounded=0;whiteSpace=wrap;html=1;hachureGap=4;fontFamily=Helvetica;fontSize=14;strokeColor=#9673a6;fillColor=#e1d5e7;" vertex="1" parent="WIyWlLk6GJQsqaUBKTNV-1">
          <mxGeometry x="1744" y="160" width="120" height="60" as="geometry" />
        </mxCell>
        <mxCell id="nOcpr3f_MZ4lIe2vfiNX-60" value="" style="edgeStyle=orthogonalEdgeStyle;shape=connector;rounded=0;orthogonalLoop=1;jettySize=auto;html=1;labelBackgroundColor=default;fontFamily=Helvetica;fontSize=14;fontColor=default;endArrow=open;sourcePerimeterSpacing=8;targetPerimeterSpacing=8;strokeColor=#000000;" edge="1" parent="WIyWlLk6GJQsqaUBKTNV-1" source="nOcpr3f_MZ4lIe2vfiNX-56" target="nOcpr3f_MZ4lIe2vfiNX-59">
          <mxGeometry relative="1" as="geometry" />
        </mxCell>
        <mxCell id="nOcpr3f_MZ4lIe2vfiNX-65" value="是" style="edgeLabel;html=1;align=center;verticalAlign=middle;resizable=0;points=[];fontSize=14;fontFamily=Helvetica;fontColor=default;" vertex="1" connectable="0" parent="nOcpr3f_MZ4lIe2vfiNX-60">
          <mxGeometry x="-0.25" y="-2" relative="1" as="geometry">
            <mxPoint as="offset" />
          </mxGeometry>
        </mxCell>
        <mxCell id="nOcpr3f_MZ4lIe2vfiNX-75" style="edgeStyle=orthogonalEdgeStyle;shape=connector;rounded=0;orthogonalLoop=1;jettySize=auto;html=1;exitX=1;exitY=0.5;exitDx=0;exitDy=0;entryX=0.5;entryY=0;entryDx=0;entryDy=0;labelBackgroundColor=default;fontFamily=Helvetica;fontSize=14;fontColor=default;endArrow=open;sourcePerimeterSpacing=8;targetPerimeterSpacing=8;strokeColor=#000000;" edge="1" parent="WIyWlLk6GJQsqaUBKTNV-1" source="nOcpr3f_MZ4lIe2vfiNX-56" target="nOcpr3f_MZ4lIe2vfiNX-58">
          <mxGeometry relative="1" as="geometry" />
        </mxCell>
        <mxCell id="nOcpr3f_MZ4lIe2vfiNX-76" value="否" style="edgeLabel;html=1;align=center;verticalAlign=middle;resizable=0;points=[];fontSize=14;fontFamily=Helvetica;fontColor=default;" vertex="1" connectable="0" parent="nOcpr3f_MZ4lIe2vfiNX-75">
          <mxGeometry x="-0.0829" y="1" relative="1" as="geometry">
            <mxPoint as="offset" />
          </mxGeometry>
        </mxCell>
        <mxCell id="nOcpr3f_MZ4lIe2vfiNX-56" value="老年代剩余空间 &amp;lt; 年轻代现有所有对象" style="rhombus;whiteSpace=wrap;html=1;rounded=0;hachureGap=4;fontFamily=Helvetica;fontSize=14;strokeColor=#b85450;fillColor=#f8cecc;" vertex="1" parent="WIyWlLk6GJQsqaUBKTNV-1">
          <mxGeometry x="1654" y="270" width="300" height="80" as="geometry" />
        </mxCell>
        <mxCell id="nOcpr3f_MZ4lIe2vfiNX-78" style="edgeStyle=orthogonalEdgeStyle;shape=connector;rounded=0;orthogonalLoop=1;jettySize=auto;html=1;exitX=0.75;exitY=1;exitDx=0;exitDy=0;labelBackgroundColor=default;fontFamily=Helvetica;fontSize=14;fontColor=default;endArrow=open;sourcePerimeterSpacing=8;targetPerimeterSpacing=8;strokeColor=#000000;entryX=0.5;entryY=0;entryDx=0;entryDy=0;" edge="1" parent="WIyWlLk6GJQsqaUBKTNV-1" source="nOcpr3f_MZ4lIe2vfiNX-58" target="nOcpr3f_MZ4lIe2vfiNX-79">
          <mxGeometry relative="1" as="geometry">
            <mxPoint x="2260" y="852" as="targetPoint" />
          </mxGeometry>
        </mxCell>
        <mxCell id="nOcpr3f_MZ4lIe2vfiNX-58" value="进行 MinorGC" style="rounded=0;whiteSpace=wrap;html=1;hachureGap=4;fontFamily=Helvetica;fontSize=14;strokeColor=#9673a6;fillColor=#e1d5e7;" vertex="1" parent="WIyWlLk6GJQsqaUBKTNV-1">
          <mxGeometry x="2170" y="420" width="120" height="60" as="geometry" />
        </mxCell>
        <mxCell id="nOcpr3f_MZ4lIe2vfiNX-62" value="" style="edgeStyle=orthogonalEdgeStyle;shape=connector;rounded=0;orthogonalLoop=1;jettySize=auto;html=1;labelBackgroundColor=default;fontFamily=Helvetica;fontSize=14;fontColor=default;endArrow=open;sourcePerimeterSpacing=8;targetPerimeterSpacing=8;strokeColor=#000000;" edge="1" parent="WIyWlLk6GJQsqaUBKTNV-1" source="nOcpr3f_MZ4lIe2vfiNX-59" target="nOcpr3f_MZ4lIe2vfiNX-61">
          <mxGeometry relative="1" as="geometry" />
        </mxCell>
        <mxCell id="nOcpr3f_MZ4lIe2vfiNX-66" value="有配置参数" style="edgeLabel;html=1;align=center;verticalAlign=middle;resizable=0;points=[];fontSize=14;fontFamily=Helvetica;fontColor=default;" vertex="1" connectable="0" parent="nOcpr3f_MZ4lIe2vfiNX-62">
          <mxGeometry x="-0.1609" y="-2" relative="1" as="geometry">
            <mxPoint as="offset" />
          </mxGeometry>
        </mxCell>
        <mxCell id="nOcpr3f_MZ4lIe2vfiNX-72" style="edgeStyle=orthogonalEdgeStyle;shape=connector;rounded=0;orthogonalLoop=1;jettySize=auto;html=1;exitX=1;exitY=0.5;exitDx=0;exitDy=0;entryX=1;entryY=0.5;entryDx=0;entryDy=0;labelBackgroundColor=default;fontFamily=Helvetica;fontSize=14;fontColor=default;endArrow=open;sourcePerimeterSpacing=8;targetPerimeterSpacing=8;strokeColor=#000000;" edge="1" parent="WIyWlLk6GJQsqaUBKTNV-1" source="nOcpr3f_MZ4lIe2vfiNX-59" target="nOcpr3f_MZ4lIe2vfiNX-67">
          <mxGeometry relative="1" as="geometry">
            <Array as="points">
              <mxPoint x="2100" y="450" />
              <mxPoint x="2100" y="770" />
            </Array>
          </mxGeometry>
        </mxCell>
        <mxCell id="nOcpr3f_MZ4lIe2vfiNX-73" value="未配置" style="edgeLabel;html=1;align=center;verticalAlign=middle;resizable=0;points=[];fontSize=14;fontFamily=Helvetica;fontColor=default;" vertex="1" connectable="0" parent="nOcpr3f_MZ4lIe2vfiNX-72">
          <mxGeometry x="-0.3397" y="1" relative="1" as="geometry">
            <mxPoint as="offset" />
          </mxGeometry>
        </mxCell>
        <mxCell id="nOcpr3f_MZ4lIe2vfiNX-59" value="是否设置了 -XX:-&lt;span style=&quot;color: rgb(74 , 74 , 74) ; font-size: 16px ; text-align: left&quot;&gt;HandlePromotionFailure 参数&lt;/span&gt;" style="rhombus;whiteSpace=wrap;html=1;rounded=0;hachureGap=4;fontFamily=Helvetica;fontSize=14;strokeColor=#b85450;fillColor=#f8cecc;" vertex="1" parent="WIyWlLk6GJQsqaUBKTNV-1">
          <mxGeometry x="1586" y="410" width="436" height="80" as="geometry" />
        </mxCell>
        <mxCell id="nOcpr3f_MZ4lIe2vfiNX-68" style="edgeStyle=orthogonalEdgeStyle;shape=connector;rounded=0;orthogonalLoop=1;jettySize=auto;html=1;exitX=0.5;exitY=1;exitDx=0;exitDy=0;entryX=0.5;entryY=0;entryDx=0;entryDy=0;labelBackgroundColor=default;fontFamily=Helvetica;fontSize=14;fontColor=default;endArrow=open;sourcePerimeterSpacing=8;targetPerimeterSpacing=8;strokeColor=#000000;" edge="1" parent="WIyWlLk6GJQsqaUBKTNV-1" source="nOcpr3f_MZ4lIe2vfiNX-61" target="nOcpr3f_MZ4lIe2vfiNX-67">
          <mxGeometry relative="1" as="geometry" />
        </mxCell>
        <mxCell id="nOcpr3f_MZ4lIe2vfiNX-71" value="是" style="edgeLabel;html=1;align=center;verticalAlign=middle;resizable=0;points=[];fontSize=14;fontFamily=Helvetica;fontColor=default;" vertex="1" connectable="0" parent="nOcpr3f_MZ4lIe2vfiNX-68">
          <mxGeometry x="-0.2" y="-1" relative="1" as="geometry">
            <mxPoint as="offset" />
          </mxGeometry>
        </mxCell>
        <mxCell id="nOcpr3f_MZ4lIe2vfiNX-69" style="edgeStyle=orthogonalEdgeStyle;shape=connector;rounded=0;orthogonalLoop=1;jettySize=auto;html=1;exitX=1;exitY=0.5;exitDx=0;exitDy=0;entryX=0.5;entryY=1;entryDx=0;entryDy=0;labelBackgroundColor=default;fontFamily=Helvetica;fontSize=14;fontColor=default;endArrow=open;sourcePerimeterSpacing=8;targetPerimeterSpacing=8;strokeColor=#000000;" edge="1" parent="WIyWlLk6GJQsqaUBKTNV-1" source="nOcpr3f_MZ4lIe2vfiNX-61" target="nOcpr3f_MZ4lIe2vfiNX-58">
          <mxGeometry relative="1" as="geometry" />
        </mxCell>
        <mxCell id="nOcpr3f_MZ4lIe2vfiNX-70" value="否" style="edgeLabel;html=1;align=center;verticalAlign=middle;resizable=0;points=[];fontSize=14;fontFamily=Helvetica;fontColor=default;" vertex="1" connectable="0" parent="nOcpr3f_MZ4lIe2vfiNX-69">
          <mxGeometry x="-0.2248" y="-2" relative="1" as="geometry">
            <mxPoint as="offset" />
          </mxGeometry>
        </mxCell>
        <mxCell id="nOcpr3f_MZ4lIe2vfiNX-61" value="老年代剩余空间 &amp;lt; 历史每次 Minor GC 后进入老年代的对象平均大小?" style="rhombus;whiteSpace=wrap;html=1;rounded=0;hachureGap=4;fontFamily=Helvetica;fontSize=14;strokeColor=#b85450;fillColor=#f8cecc;" vertex="1" parent="WIyWlLk6GJQsqaUBKTNV-1">
          <mxGeometry x="1542" y="585" width="526" height="80" as="geometry" />
        </mxCell>
        <mxCell id="nOcpr3f_MZ4lIe2vfiNX-74" style="edgeStyle=orthogonalEdgeStyle;shape=connector;rounded=0;orthogonalLoop=1;jettySize=auto;html=1;exitX=0.5;exitY=1;exitDx=0;exitDy=0;entryX=1;entryY=0.5;entryDx=0;entryDy=0;labelBackgroundColor=default;fontFamily=Helvetica;fontSize=14;fontColor=default;endArrow=open;sourcePerimeterSpacing=8;targetPerimeterSpacing=8;strokeColor=#000000;" edge="1" parent="WIyWlLk6GJQsqaUBKTNV-1" source="nOcpr3f_MZ4lIe2vfiNX-67" target="nOcpr3f_MZ4lIe2vfiNX-58">
          <mxGeometry relative="1" as="geometry" />
        </mxCell>
        <mxCell id="nOcpr3f_MZ4lIe2vfiNX-80" style="edgeStyle=orthogonalEdgeStyle;shape=connector;rounded=0;orthogonalLoop=1;jettySize=auto;html=1;exitX=0.25;exitY=1;exitDx=0;exitDy=0;entryX=0;entryY=0.5;entryDx=0;entryDy=0;labelBackgroundColor=default;fontFamily=Helvetica;fontSize=14;fontColor=default;endArrow=open;sourcePerimeterSpacing=8;targetPerimeterSpacing=8;strokeColor=#000000;" edge="1" parent="WIyWlLk6GJQsqaUBKTNV-1" source="nOcpr3f_MZ4lIe2vfiNX-67" target="nOcpr3f_MZ4lIe2vfiNX-79">
          <mxGeometry relative="1" as="geometry" />
        </mxCell>
        <mxCell id="nOcpr3f_MZ4lIe2vfiNX-67" value="进行 Full GC" style="rounded=0;whiteSpace=wrap;html=1;hachureGap=4;fontFamily=Helvetica;fontSize=14;strokeColor=#d6b656;fillColor=#fff2cc;" vertex="1" parent="WIyWlLk6GJQsqaUBKTNV-1">
          <mxGeometry x="1745" y="740" width="120" height="60" as="geometry" />
        </mxCell>
        <mxCell id="nOcpr3f_MZ4lIe2vfiNX-82" value="" style="edgeStyle=orthogonalEdgeStyle;shape=connector;rounded=0;orthogonalLoop=1;jettySize=auto;html=1;labelBackgroundColor=default;fontFamily=Helvetica;fontSize=14;fontColor=default;endArrow=open;sourcePerimeterSpacing=8;targetPerimeterSpacing=8;strokeColor=#000000;" edge="1" parent="WIyWlLk6GJQsqaUBKTNV-1" source="nOcpr3f_MZ4lIe2vfiNX-79" target="nOcpr3f_MZ4lIe2vfiNX-81">
          <mxGeometry relative="1" as="geometry" />
        </mxCell>
        <mxCell id="nOcpr3f_MZ4lIe2vfiNX-83" value="否" style="edgeLabel;html=1;align=center;verticalAlign=middle;resizable=0;points=[];fontSize=14;fontFamily=Helvetica;fontColor=default;" vertex="1" connectable="0" parent="nOcpr3f_MZ4lIe2vfiNX-82">
          <mxGeometry x="-0.2885" y="1" relative="1" as="geometry">
            <mxPoint as="offset" />
          </mxGeometry>
        </mxCell>
        <mxCell id="nOcpr3f_MZ4lIe2vfiNX-79" value="老年代剩余空间是否足够?" style="rhombus;whiteSpace=wrap;html=1;rounded=0;hachureGap=4;fontFamily=Helvetica;fontSize=14;strokeColor=#b85450;fillColor=#f8cecc;" vertex="1" parent="WIyWlLk6GJQsqaUBKTNV-1">
          <mxGeometry x="2160" y="850" width="200" height="80" as="geometry" />
        </mxCell>
        <mxCell id="nOcpr3f_MZ4lIe2vfiNX-81" value="OOM" style="whiteSpace=wrap;html=1;rounded=0;hachureGap=4;fontFamily=Helvetica;fontSize=14;fontColor=#ffffff;strokeColor=#6F0000;fillColor=#a20025;" vertex="1" parent="WIyWlLk6GJQsqaUBKTNV-1">
          <mxGeometry x="2200" y="990" width="120" height="60" as="geometry" />
        </mxCell>
        <mxCell id="nOcpr3f_MZ4lIe2vfiNX-84" value="" style="strokeWidth=2;html=1;shape=mxgraph.flowchart.annotation_1;align=left;pointerEvents=1;rounded=0;hachureGap=4;fontFamily=Helvetica;fontSize=14;fontColor=default;fillColor=default;" vertex="1" parent="WIyWlLk6GJQsqaUBKTNV-1">
          <mxGeometry x="1700" y="1200" width="480" height="100" as="geometry" />
        </mxCell>
        <mxCell id="nOcpr3f_MZ4lIe2vfiNX-89" style="edgeStyle=orthogonalEdgeStyle;shape=connector;rounded=0;orthogonalLoop=1;jettySize=auto;html=1;exitX=0.5;exitY=1;exitDx=0;exitDy=0;entryX=0.5;entryY=0;entryDx=0;entryDy=0;labelBackgroundColor=default;fontFamily=Helvetica;fontSize=14;fontColor=default;endArrow=open;sourcePerimeterSpacing=8;targetPerimeterSpacing=8;strokeColor=#000000;" edge="1" parent="WIyWlLk6GJQsqaUBKTNV-1" source="nOcpr3f_MZ4lIe2vfiNX-85" target="nOcpr3f_MZ4lIe2vfiNX-88">
          <mxGeometry relative="1" as="geometry" />
        </mxCell>
        <mxCell id="nOcpr3f_MZ4lIe2vfiNX-85" value="GC Root" style="rounded=0;whiteSpace=wrap;html=1;hachureGap=4;fontFamily=Helvetica;fontSize=14;strokeColor=#82b366;fillColor=#d5e8d4;" vertex="1" parent="WIyWlLk6GJQsqaUBKTNV-1">
          <mxGeometry x="1744" y="1220" width="120" height="60" as="geometry" />
        </mxCell>
        <mxCell id="nOcpr3f_MZ4lIe2vfiNX-86" value="GC Root Sets" style="text;html=1;align=center;verticalAlign=middle;resizable=0;points=[];autosize=1;strokeColor=none;fillColor=none;rounded=0;hachureGap=4;fontFamily=Helvetica;fontSize=14;fontColor=default;" vertex="1" parent="WIyWlLk6GJQsqaUBKTNV-1">
          <mxGeometry x="1700" y="1200" width="100" height="20" as="geometry" />
        </mxCell>
        <mxCell id="nOcpr3f_MZ4lIe2vfiNX-87" value="GC Root" style="rounded=0;whiteSpace=wrap;html=1;hachureGap=4;fontFamily=Helvetica;fontSize=14;strokeColor=#82b366;fillColor=#d5e8d4;" vertex="1" parent="WIyWlLk6GJQsqaUBKTNV-1">
          <mxGeometry x="1890" y="1220" width="120" height="60" as="geometry" />
        </mxCell>
        <mxCell id="nOcpr3f_MZ4lIe2vfiNX-95" style="edgeStyle=orthogonalEdgeStyle;shape=connector;rounded=0;orthogonalLoop=1;jettySize=auto;html=1;exitX=0.5;exitY=1;exitDx=0;exitDy=0;entryX=0.583;entryY=0;entryDx=0;entryDy=0;entryPerimeter=0;labelBackgroundColor=default;fontFamily=Helvetica;fontSize=14;fontColor=default;endArrow=open;sourcePerimeterSpacing=8;targetPerimeterSpacing=8;strokeColor=#2D7600;fillColor=#60a917;" edge="1" parent="WIyWlLk6GJQsqaUBKTNV-1" source="nOcpr3f_MZ4lIe2vfiNX-88" target="nOcpr3f_MZ4lIe2vfiNX-93">
          <mxGeometry relative="1" as="geometry" />
        </mxCell>
        <mxCell id="nOcpr3f_MZ4lIe2vfiNX-99" style="edgeStyle=orthogonalEdgeStyle;shape=connector;rounded=0;orthogonalLoop=1;jettySize=auto;html=1;exitX=0.5;exitY=1;exitDx=0;exitDy=0;entryX=0.5;entryY=0;entryDx=0;entryDy=0;labelBackgroundColor=default;fontFamily=Helvetica;fontSize=14;fontColor=default;endArrow=open;sourcePerimeterSpacing=8;targetPerimeterSpacing=8;strokeColor=#2D7600;fillColor=#60a917;" edge="1" parent="WIyWlLk6GJQsqaUBKTNV-1" source="nOcpr3f_MZ4lIe2vfiNX-88" target="nOcpr3f_MZ4lIe2vfiNX-94">
          <mxGeometry relative="1" as="geometry" />
        </mxCell>
        <mxCell id="nOcpr3f_MZ4lIe2vfiNX-88" value="Obj 1" style="rounded=0;whiteSpace=wrap;html=1;hachureGap=4;fontFamily=Helvetica;fontSize=14;fontColor=#ffffff;strokeColor=#2D7600;fillColor=#60a917;" vertex="1" parent="WIyWlLk6GJQsqaUBKTNV-1">
          <mxGeometry x="1756" y="1330" width="96" height="30" as="geometry" />
        </mxCell>
        <mxCell id="nOcpr3f_MZ4lIe2vfiNX-93" value="Obj 2" style="rounded=0;whiteSpace=wrap;html=1;hachureGap=4;fontFamily=Helvetica;fontSize=14;fontColor=#ffffff;strokeColor=#2D7600;fillColor=#60a917;" vertex="1" parent="WIyWlLk6GJQsqaUBKTNV-1">
          <mxGeometry x="1700" y="1390" width="96" height="30" as="geometry" />
        </mxCell>
        <mxCell id="nOcpr3f_MZ4lIe2vfiNX-98" style="edgeStyle=orthogonalEdgeStyle;shape=connector;rounded=0;orthogonalLoop=1;jettySize=auto;html=1;exitX=0.5;exitY=1;exitDx=0;exitDy=0;entryX=0.5;entryY=0;entryDx=0;entryDy=0;labelBackgroundColor=default;fontFamily=Helvetica;fontSize=14;fontColor=default;endArrow=open;sourcePerimeterSpacing=8;targetPerimeterSpacing=8;strokeColor=#2D7600;fillColor=#60a917;" edge="1" parent="WIyWlLk6GJQsqaUBKTNV-1" source="nOcpr3f_MZ4lIe2vfiNX-94" target="nOcpr3f_MZ4lIe2vfiNX-97">
          <mxGeometry relative="1" as="geometry" />
        </mxCell>
        <mxCell id="nOcpr3f_MZ4lIe2vfiNX-94" value="Obj 3" style="rounded=0;whiteSpace=wrap;html=1;hachureGap=4;fontFamily=Helvetica;fontSize=14;fontColor=#ffffff;strokeColor=#2D7600;fillColor=#60a917;" vertex="1" parent="WIyWlLk6GJQsqaUBKTNV-1">
          <mxGeometry x="1810" y="1390" width="96" height="30" as="geometry" />
        </mxCell>
        <mxCell id="nOcpr3f_MZ4lIe2vfiNX-97" value="Obj 3" style="rounded=0;whiteSpace=wrap;html=1;hachureGap=4;fontFamily=Helvetica;fontSize=14;fontColor=#ffffff;strokeColor=#2D7600;fillColor=#60a917;" vertex="1" parent="WIyWlLk6GJQsqaUBKTNV-1">
          <mxGeometry x="1810" y="1460" width="96" height="30" as="geometry" />
        </mxCell>
        <mxCell id="nOcpr3f_MZ4lIe2vfiNX-104" style="edgeStyle=orthogonalEdgeStyle;shape=connector;rounded=0;orthogonalLoop=1;jettySize=auto;html=1;exitX=0.5;exitY=1;exitDx=0;exitDy=0;entryX=0.5;entryY=0;entryDx=0;entryDy=0;labelBackgroundColor=default;fontFamily=Helvetica;fontSize=14;fontColor=default;endArrow=open;sourcePerimeterSpacing=8;targetPerimeterSpacing=8;strokeColor=#d79b00;fillColor=#ffe6cc;" edge="1" parent="WIyWlLk6GJQsqaUBKTNV-1" source="nOcpr3f_MZ4lIe2vfiNX-100" target="nOcpr3f_MZ4lIe2vfiNX-101">
          <mxGeometry relative="1" as="geometry" />
        </mxCell>
        <mxCell id="nOcpr3f_MZ4lIe2vfiNX-100" value="Obj 4" style="rounded=0;whiteSpace=wrap;html=1;hachureGap=4;fontFamily=Helvetica;fontSize=14;strokeColor=#d79b00;fillColor=#ffe6cc;" vertex="1" parent="WIyWlLk6GJQsqaUBKTNV-1">
          <mxGeometry x="2010" y="1330" width="110" height="30" as="geometry" />
        </mxCell>
        <mxCell id="nOcpr3f_MZ4lIe2vfiNX-101" value="Obj 5" style="rounded=0;whiteSpace=wrap;html=1;hachureGap=4;fontFamily=Helvetica;fontSize=14;strokeColor=#d79b00;fillColor=#ffe6cc;" vertex="1" parent="WIyWlLk6GJQsqaUBKTNV-1">
          <mxGeometry x="2010" y="1390" width="110" height="30" as="geometry" />
        </mxCell>
        <mxCell id="nOcpr3f_MZ4lIe2vfiNX-106" value="..." style="rounded=0;whiteSpace=wrap;html=1;hachureGap=4;fontFamily=Helvetica;fontSize=14;strokeColor=#82b366;fillColor=#d5e8d4;" vertex="1" parent="WIyWlLk6GJQsqaUBKTNV-1">
          <mxGeometry x="2030" y="1220" width="120" height="60" as="geometry" />
        </mxCell>
        <mxCell id="nOcpr3f_MZ4lIe2vfiNX-107" value="被引用的对象" style="text;html=1;align=center;verticalAlign=middle;resizable=0;points=[];autosize=1;strokeColor=none;fillColor=none;rounded=0;hachureGap=4;fontFamily=Helvetica;fontSize=14;fontColor=default;" vertex="1" parent="WIyWlLk6GJQsqaUBKTNV-1">
          <mxGeometry x="1745" y="1500" width="100" height="20" as="geometry" />
        </mxCell>
        <mxCell id="nOcpr3f_MZ4lIe2vfiNX-108" value="无引用对象，可回收" style="text;html=1;align=center;verticalAlign=middle;resizable=0;points=[];autosize=1;strokeColor=none;fillColor=none;rounded=0;hachureGap=4;fontFamily=Helvetica;fontSize=14;fontColor=default;" vertex="1" parent="WIyWlLk6GJQsqaUBKTNV-1">
          <mxGeometry x="1998" y="1500" width="140" height="20" as="geometry" />
        </mxCell>
      </root>
    </mxGraphModel>
  </diagram>
</mxfile>
